<svg width="60" height="63" viewBox="0 0 60 63" fill="none" xmlns="http://www.w3.org/2000/svg">
<path fill-rule="evenodd" clip-rule="evenodd" d="M59.0185 24.7372C59.3715 26.059 59.642 27.4041 59.7945 28.7625C60.1092 31.4763 60.0704 34.2315 59.6231 36.9194C59.4006 38.2633 59.088 39.59 58.6877 40.8892C58.2787 42.1852 57.7813 43.4516 57.202 44.6775C56.6238 45.9034 55.9631 47.0905 55.2109 48.2151C54.457 49.3387 53.6288 50.4089 52.7353 51.4193C53.583 50.3701 54.3595 49.2665 55.0573 48.1176C55.7643 46.9741 56.3808 45.7773 56.9115 44.546C57.4434 43.3152 57.8918 42.05 58.2517 40.761C58.6031 39.4699 58.866 38.1566 59.0401 36.8332C59.0886 36.4808 59.129 36.1273 59.164 35.7732C59.0164 36.6909 58.8288 37.6011 58.5982 38.4994C59.0401 36.4921 59.2718 34.4411 59.2923 32.3918C59.2152 28.5475 58.3751 24.728 56.8253 21.227C55.8624 19.0802 54.6364 17.0524 53.1874 15.203C53.5603 15.7079 53.9154 16.2258 54.2517 16.756C54.9264 17.8273 55.5283 18.9427 56.0526 20.0927C56.5688 21.2469 57.0053 22.4341 57.3599 23.6444C58.0841 26.0623 58.4155 28.5842 58.4225 31.0937C58.2199 26.079 56.6599 21.1354 53.8562 17.0136C52.4847 14.9368 50.8121 13.0658 48.9304 11.4487C47.0476 9.82994 44.9309 8.49463 42.6838 7.45731C38.1751 5.41877 33.1103 4.61154 28.2136 5.27543C23.318 5.91345 18.6201 7.94714 14.7941 11.0607C10.9509 14.1517 7.98608 18.329 6.38295 22.9999C6.31626 23.1848 6.25835 23.3728 6.20039 23.5609C6.16749 23.6677 6.13458 23.7746 6.10004 23.8809C6.00628 24.1752 5.91305 24.4688 5.84192 24.7695L5.61075 25.6662L5.42322 26.5731L5.33054 27.0268L5.26048 27.4843L5.12361 28.4004C5.10676 28.5926 5.08671 28.7846 5.06665 28.9767C5.02254 29.3989 4.97842 29.8212 4.96842 30.246C4.83262 32.713 5.0611 35.1977 5.60266 37.6129C6.69765 42.446 9.19045 46.9574 12.6791 50.5059C13.5494 51.3945 14.4703 52.2389 15.4623 52.9944C15.7994 53.2708 16.1561 53.52 16.5131 53.7693C16.6675 53.8772 16.822 53.9851 16.9749 54.0953C17.134 54.194 17.2918 54.295 17.4497 54.3961C17.8176 54.6317 18.1857 54.8674 18.5711 55.0744C20.7368 56.323 23.0911 57.238 25.5225 57.8598C20.5956 56.8581 15.977 54.3669 12.3477 50.8378C8.72864 47.2964 6.0995 42.7289 4.88543 37.7837C3.64226 32.8423 3.89822 27.5436 5.52291 22.7057C7.15191 17.8602 10.2213 13.5271 14.189 10.3128C17.891 7.31882 22.3717 5.29483 27.069 4.52101C23.4203 4.97259 19.859 6.12684 16.6559 7.94175C16.4697 8.04315 16.2885 8.15365 16.1072 8.26414C16.0062 8.32569 15.9052 8.38724 15.8034 8.44721C15.5195 8.61641 15.236 8.78562 14.9655 8.97638L14.1432 9.53087L13.3489 10.1247L12.9523 10.4227L12.5713 10.7401L11.8104 11.3776C11.6615 11.5187 11.5102 11.6574 11.3589 11.7962C11.0225 12.1048 10.686 12.4134 10.3749 12.7479C8.51255 14.6302 6.93205 16.7867 5.65278 19.1103C3.10878 23.7694 1.88717 29.1532 2.15014 34.4859C2.19378 35.3793 2.27354 36.2733 2.3964 37.1613C3.00424 40.3509 4.14395 43.4445 5.76702 46.2661C6.43198 47.4257 7.16107 48.5536 7.98877 49.6076C8.26576 49.9877 8.57083 50.3451 8.87611 50.7027C9.00618 50.855 9.13629 51.0074 9.26427 51.1617C9.40326 51.3076 9.54024 51.4556 9.67725 51.6036C9.99603 51.948 10.3149 52.2926 10.6594 52.6118C12.5735 54.4967 14.7747 56.0842 17.135 57.3878C13.3494 55.5238 10.0101 52.7664 7.39009 49.4308C7.54852 49.6475 7.71018 49.8614 7.88262 50.0672C9.61831 52.2771 11.6795 54.2273 13.9567 55.8838C18.5269 59.1811 24.0357 61.1862 29.6917 61.6206C31.1051 61.731 32.5294 61.7655 33.9482 61.6701C34.4452 61.6543 34.9388 61.6007 35.4328 61.547C35.6464 61.5238 35.86 61.5006 36.0741 61.4805C36.284 61.4461 36.4948 61.4147 36.7056 61.3833C37.1992 61.3097 37.6934 61.236 38.1805 61.1243C39.5821 60.8575 40.9557 60.455 42.3055 59.9878L43.3148 59.623C43.531 59.5388 43.7445 59.4483 43.9581 59.3577C44.074 59.3086 44.1899 59.2594 44.3063 59.2113L44.8016 59.0027L45.2865 58.771L46.2554 58.3038C41.2924 61.2024 35.443 62.5792 29.6486 62.3233C23.8531 62.0506 18.1098 60.1425 13.3106 56.8015C8.48669 53.4934 4.67527 48.7411 2.3937 43.34C0.111597 37.9282 -0.535584 31.86 0.43869 26.0752C1.42482 20.2899 4.02809 14.7848 7.92141 10.3909C8.90108 9.29862 9.95349 8.27477 11.0668 7.32151C11.2476 7.16754 11.4339 7.02013 11.6201 6.87282C11.7212 6.79278 11.8223 6.71277 11.9225 6.63176L12.352 6.28958L12.7971 5.96734L13.6905 5.32824L14.6142 4.73441C17.0849 3.15983 19.7965 1.98348 22.6029 1.17518C24.0093 0.779652 25.4427 0.485969 26.8874 0.286588C28.3327 0.0888229 29.7908 -0.0184119 31.2474 0.00260396C34.1589 0.0327806 37.0661 0.441243 39.8477 1.27164C41.238 1.68711 42.5981 2.1958 43.9167 2.79286C45.231 3.39909 46.5022 4.09423 47.719 4.87074C48.9363 5.64617 50.1013 6.50297 51.1877 7.44815C52.2724 8.39548 53.2904 9.41394 54.2361 10.4933C53.2365 9.46297 52.1717 8.50056 51.0487 7.61627C49.9332 6.72229 48.7499 5.91614 47.5191 5.19675C46.2894 4.47629 45.0123 3.83935 43.6996 3.29293C42.3826 2.75568 41.0316 2.30788 39.6586 1.95331C34.1713 0.500518 28.3117 0.627152 22.9208 2.25615C17.5408 3.91317 12.6182 7.04292 8.94958 11.2935C7.77592 12.6374 6.72674 14.087 5.80959 15.6163C5.8267 15.5898 5.84327 15.563 5.85983 15.5362C5.8803 15.503 5.90076 15.4699 5.92221 15.4374C8.92856 10.8495 13.2902 7.18356 18.2812 4.92301C23.2748 2.66515 28.8974 1.80727 34.333 2.52451C35.6904 2.71096 37.0338 2.99009 38.354 3.35275C38.5658 3.41167 38.7758 3.47817 38.9857 3.54466C39.1022 3.58154 39.2186 3.61841 39.3353 3.65397L39.8251 3.80755L40.3074 3.98376L41.2698 4.34103L42.2128 4.74518C44.7245 5.83316 47.0551 7.31774 49.1502 9.06798C51.2303 10.8376 53.077 12.8805 54.5896 15.148C55.1694 16.0183 55.7045 16.9177 56.1922 17.8418C56.7456 18.8177 57.2467 19.8233 57.6891 20.853C58.2221 22.1161 58.6634 23.4159 59.0185 24.7372ZM46.4979 21.8477H15.6848V14.1446H38.7948C42.9812 14.1446 46.3896 17.4883 46.4957 21.6478C46.4979 21.7156 46.4979 21.7802 46.4979 21.8474V21.8477ZM19.5367 48.8095V25.7001H27.2398V41.1063C27.2398 45.3596 23.7905 48.8095 19.5367 48.8095ZM34.9429 48.8095V25.7001H42.646V41.1063C42.646 45.3596 39.1967 48.8095 34.9429 48.8095Z" fill="url(#paint0_linear_6_114)"/>
<defs>
<linearGradient id="paint0_linear_6_114" x1="3.41847e-06" y1="27.8204" x2="60" y2="27.8203" gradientUnits="userSpaceOnUse">
<stop stop-color="#F4F4F4" stop-opacity="0.86"/>
<stop offset="1" stop-color="#F4F4F4"/>
</linearGradient>
</defs>
</svg>
